<svg version="1.1" xmlns="http://www.w3.org/2000/svg" viewBox="0 0 172.6078338779509 199.77618408203125" width="172.6078338779509" height="199.77618408203125">
  <!-- svg-source:excalidraw -->
  
  <defs>
    <style>
      @font-face {
        font-family: "Virgil";
        src: url("https://unpkg.com/@excalidraw/excalidraw@0.13.0/dist/excalidraw-assets/Virgil.woff2");
      }
      @font-face {
        font-family: "Cascadia";
        src: url("https://unpkg.com/@excalidraw/excalidraw@0.13.0/dist/excalidraw-assets/Cascadia.woff2");
      }
    </style>
  </defs>
  <rect x="0" y="0" width="172.6078338779509" height="199.77618408203125" fill="#ffffff"></rect><g stroke-linecap="round" transform="translate(11.626205459982145 10) rotate(0 63.98838806152344 56.276580810546875)"><path d="M56.96 -0.33 C66.06 -1.97, 77.42 0.61, 86.67 3.83 C95.91 7.05, 105.86 12.53, 112.45 18.98 C119.03 25.42, 123.81 34.17, 126.16 42.5 C128.51 50.82, 128.82 60.4, 126.54 68.92 C124.26 77.44, 119.31 87, 112.5 93.63 C105.7 100.26, 95.06 105.54, 85.7 108.7 C76.34 111.86, 65.89 113.48, 56.35 112.6 C46.81 111.72, 36.71 108.6, 28.45 103.42 C20.19 98.23, 11.53 89.5, 6.77 81.47 C2.01 73.44, -0.27 63.7, -0.11 55.25 C0.05 46.8, 3.09 38.2, 7.71 30.77 C12.34 23.34, 18.56 15.65, 27.64 10.67 C36.72 5.69, 55.1 2.39, 62.17 0.86 C69.25 -0.66, 70.09 0.76, 70.09 1.53 M93.94 6.23 C102.94 9.31, 110.37 16.83, 115.89 24.1 C121.41 31.37, 125.74 41.38, 127.04 49.85 C128.34 58.33, 127.16 67.07, 123.71 74.95 C120.26 82.84, 113.62 91.18, 106.35 97.16 C99.07 103.13, 89.73 108.36, 80.07 110.8 C70.41 113.24, 58.15 113.74, 48.38 111.8 C38.61 109.86, 28.99 105.15, 21.46 99.17 C13.92 93.19, 6.86 84.24, 3.17 75.92 C-0.51 67.6, -2.03 57.86, -0.66 49.24 C0.7 40.62, 5.63 31.37, 11.39 24.2 C17.14 17.03, 25.5 10.17, 33.85 6.22 C42.21 2.28, 51.95 0.55, 61.53 0.54 C71.11 0.53, 86.32 5.27, 91.33 6.14 C96.34 7, 91.96 4.78, 91.6 5.73" stroke="#000000" stroke-width="1" fill="none"></path></g><g stroke-linecap="round" transform="translate(66.94166566506027 12.41644287109375) rotate(0 24.81427001953125 51.855865478515625)"><path d="M23.22 -0.73 C30.4 14.44, 38.26 28.54, 48.73 51.72 M24.58 0.46 C31.62 15.83, 38.76 31.12, 49.35 51.63 M51.12 50.56 C43.95 66.79, 35.4 78.63, 23.53 103.84 M49.63 52.38 C40.88 68.01, 33.22 85.32, 24.85 104.05 M26.11 105.2 C19.94 93.92, 15.96 82.92, -0.83 53.86 M25.29 104.34 C17.63 88.49, 9.95 71.14, -0.62 52.09 M-1.91 52.99 C6.97 36.49, 12.7 22.03, 25.04 -0.71 M-0.32 51.9 C8.39 35.59, 15.26 20.27, 25.94 0.96" stroke="#000000" stroke-width="1" fill="none"></path></g><g transform="translate(27.607833877950895 166.77618408203125) rotate(0 67.5 11.5)"><text x="0" y="17" font-family="Virgil, Segoe UI Emoji" font-size="20px" fill="#000000" text-anchor="start" style="white-space: pre;" direction="ltr">AttackVectorYT</text></g><g stroke-linecap="round"><g transform="translate(67.21455384865402 63.381744384765625) rotate(0 11.55742968741339 1.1481540933670402)"><path d="M0.87 -0.73 C4.74 -0.61, 19.76 1.26, 23.25 1.85 M-0.13 1.5 C3.67 2.27, 19.37 2.57, 22.87 3.03" stroke="#000000" stroke-width="1" fill="none"></path></g></g><g stroke-linecap="round"><g transform="translate(89.31959535256027 15.526153564453125) rotate(0 0.7023578894310276 25.122766026449384)"><path d="M0.62 0.05 C0.72 8.61, -0.21 43.06, -0.31 51.21 M-0.52 -0.96 C0.03 7.3, 2.02 41.27, 1.92 49.71" stroke="#000000" stroke-width="1" fill="none"></path></g></g><g stroke-linecap="round"><g transform="translate(90.03144837990402 67.77032470703125) rotate(0 12.134857860952593 -2.4719520129263373)"><path d="M-1.16 0.07 C2.89 -0.77, 21.01 -4.27, 25.43 -5.01 M0.43 -0.94 C4.32 -1.66, 20.92 -3.55, 25.03 -3.93" stroke="#000000" stroke-width="1" fill="none"></path></g></g><g stroke-linecap="round"><g transform="translate(88.47547914162277 64.60467529296875) rotate(0 2.637446419149626 24.62399588738569)"><path d="M-0.54 -0.19 C0.62 8, 4.5 40.85, 5.82 49.14 M1.37 -1.33 C2.44 7.04, 3.67 41.86, 4.63 50.58" stroke="#000000" stroke-width="1" fill="none"></path></g></g><g stroke-linecap="round"><g transform="translate(10.750961319357145 68.33377075195312) rotate(0 28.334250875562446 -2.763685452598139)"><path d="M-0.75 -0.05 C8.74 -0.57, 47.82 -3.14, 57.42 -3.87 M1.06 -1.13 C10.34 -1.89, 47.33 -4.56, 56.45 -5.47" stroke="#000000" stroke-width="1" fill="none"></path></g></g><g stroke-linecap="round"><g transform="translate(114.17030336037277 63.780792236328125) rotate(0 13.210866705328215 0.32294224329220356)"><path d="M-0.31 0.58 C4.22 0.83, 22.3 1.4, 26.73 1.24 M1.73 -0.16 C6.15 -0.25, 21.9 -0.69, 25.82 -0.61" stroke="#000000" stroke-width="1" fill="none"></path></g></g></svg>